<svg width="40" height="40" viewBox="0 0 40 40" fill="none" xmlns="http://www.w3.org/2000/svg">
<rect width="40" height="40" rx="8" fill="#2CBA7A"/>
<path d="M26.179 17.1847H23.9631C23.8778 16.7112 23.7192 16.2945 23.4872 15.9347C23.2552 15.5748 22.9711 15.2694 22.6349 15.0185C22.2988 14.7675 21.9223 14.5781 21.5057 14.4503C21.0938 14.3224 20.6558 14.2585 20.1918 14.2585C19.3537 14.2585 18.6032 14.4692 17.9403 14.8906C17.2822 15.312 16.7614 15.9299 16.3778 16.7443C15.9991 17.5587 15.8097 18.553 15.8097 19.7273C15.8097 20.911 15.9991 21.91 16.3778 22.7244C16.7614 23.5388 17.2846 24.1544 17.9474 24.571C18.6103 24.9877 19.3561 25.196 20.1847 25.196C20.6439 25.196 21.0795 25.1345 21.4915 25.0114C21.9081 24.8835 22.2846 24.6965 22.6207 24.4503C22.9569 24.2041 23.241 23.9034 23.473 23.5483C23.7098 23.1884 23.8731 22.7765 23.9631 22.3125L26.179 22.3196C26.0606 23.0346 25.831 23.6927 25.4901 24.294C25.1539 24.8906 24.7206 25.4067 24.1903 25.8423C23.6648 26.2732 23.0634 26.607 22.3864 26.8438C21.7093 27.0805 20.9706 27.1989 20.1705 27.1989C18.911 27.1989 17.7888 26.9006 16.804 26.304C15.8191 25.7027 15.0426 24.8433 14.4744 23.7259C13.911 22.6084 13.6293 21.2756 13.6293 19.7273C13.6293 18.1742 13.9134 16.8414 14.4815 15.7287C15.0497 14.6113 15.8262 13.7543 16.8111 13.1577C17.7959 12.5563 18.9157 12.2557 20.1705 12.2557C20.9422 12.2557 21.6619 12.367 22.3295 12.5895C23.0019 12.8073 23.6056 13.1293 24.1406 13.5554C24.6757 13.9768 25.1184 14.4929 25.4688 15.1037C25.8191 15.7098 26.0559 16.4034 26.179 17.1847Z" fill="#02532F"/>
</svg>
